# xmcd
#
# Track frame offsets:
# 150
# 20838
# 37529
# 56378
# 76226
# 100803
# 118450
# 141720
# 162183
# 176560
# 200042
# 220863
#
# Disc length: 3218 seconds
#
#
# Revision: 0
# Processed by: cddbd v1.5.1PL2 Copyright (c) Steve Scherf et al.
# Submitted via: FreeRIP 2.94 
#
DISCID=a90c900c
DTITLE=Gisele Nascimento - Minha Herança
DYEAR=2005
DGENRE=Gospel
TTITLE0=Minha Herança
TTITLE1=Palavras
TTITLE2=Então Creia
TTITLE3=Não Desista
TTITLE4=Nada Querer
TTITLE5=Nesta Vida
TTITLE6=Lágrimas de Adoração
TTITLE7=Vento Impetuoso
TTITLE8=Tudo Bem! Tudo Legal!
TTITLE9=Meu Amor
TTITLE10=Oferta de Amor
TTITLE11=Fé Em Ação
EXTD=
EXTT0=
EXTT1=
EXTT2=
EXTT3=
EXTT4=
EXTT5=
EXTT6=
EXTT7=
EXTT8=
EXTT9=
EXTT10=
EXTT11=
PLAYORDER=
